<svg height="1em" style="flex:none;line-height:1" viewBox="0 0 24 24" width="1em" xmlns="http://www.w3.org/2000/svg"><rect x="0" y="0" width="24" height="24" fill="#ffffff"/><title>Luma</title><path d="M2 5.999L12.392 0v24L2 18V5.999z" fill="#000"/><path d="M12.392 24L2 18l10.392-6 10.393 6-10.393 6z" fill="url(#lobe-icons-luma-fill-0)"/><path d="M12.392 24L2 18l10.392-6 10.393 6-10.393 6z" fill="url(#lobe-icons-luma-fill-1)"/><path d="M2 5.999L12.392 0v24L2 18V5.999z" fill="url(#lobe-icons-luma-fill-2)" style="mix-blend-mode:screen"/><path d="M12.392 24L2 18l10.392-6 10.393 6-10.393 6z" fill="url(#lobe-icons-luma-fill-3)" style="mix-blend-mode:overlay"/><path d="M2 5.999L12.392 0v24L2 18V5.999z" fill="url(#lobe-icons-luma-fill-4)" style="mix-blend-mode:overlay"/><defs><linearGradient gradientUnits="userSpaceOnUse" id="lobe-icons-luma-fill-0" x1="2" x2="22.785" y1="18" y2="18"><stop stop-color="#00A"/><stop offset="1" stop-color="#A78DFF"/></linearGradient><linearGradient gradientUnits="userSpaceOnUse" id="lobe-icons-luma-fill-1" x1="2" x2="22.785" y1="18" y2="18"><stop stop-color="#00A"/><stop offset="1" stop-color="#A78DFF"/></linearGradient><linearGradient gradientUnits="userSpaceOnUse" id="lobe-icons-luma-fill-2" x1="13.748" x2="4.672" y1="22.642" y2="3.745"><stop stop-color="#004EFF"/><stop offset="1" stop-color="#0FF"/></linearGradient><linearGradient gradientUnits="userSpaceOnUse" id="lobe-icons-luma-fill-3" x1="2" x2="22.785" y1="18" y2="18"><stop stop-color="#00A"/><stop offset="1" stop-color="#A78DFF"/></linearGradient><linearGradient gradientUnits="userSpaceOnUse" id="lobe-icons-luma-fill-4" x1="13.748" x2="4.672" y1="22.642" y2="3.745"><stop stop-color="#004EFF"/><stop offset="1" stop-color="#0FF"/></linearGradient></defs></svg>